HIERARCHY
ROOT Hips
{
  OFFSET -327.016 93.3505 301.686
  CHANNELS 6 Xposition Yposition Zposition Zrotation Xrotation Yrotation
  JOINT ToSpine
  {
    OFFSET -0.0105055 1.38907 -7.13956
    CHANNELS 3 Zrotation Xrotation Yrotation
    JOINT Spine
    {
      OFFSET 0.0105055 10 1
      CHANNELS 3 Zrotation Xrotation Yrotation
      JOINT Spine1
      {
        OFFSET 0 12 1.60637
        CHANNELS 3 Zrotation Xrotation Yrotation
        JOINT Neck
        {
          OFFSET 0 27 2.26658
          CHANNELS 3 Zrotation Xrotation Yrotation
          JOINT Head
          {
            OFFSET 0 9 2.12705
            CHANNELS 3 Zrotation Xrotation Yrotation
            End Site
            {
              OFFSET 0 11 2
            }
          }
        }
        JOINT LeftShoulder
        {
          OFFSET 8 19.6109 2.86452
          CHANNELS 3 Zrotation Xrotation Yrotation
          JOINT LeftArm
          {
            OFFSET 12 1 0.681055
            CHANNELS 3 Zrotation Xrotation Yrotation
            JOINT LeftForeArm
            {
              OFFSET 19 0 -1.52608
              CHANNELS 3 Zrotation Xrotation Yrotation
              JOINT LeftHand
              {
                OFFSET 23 0 0
                CHANNELS 3 Zrotation Xrotation Yrotation
                End Site
                {
                  OFFSET 10 0 0
                }
              }
            }
          }
        }
        JOINT RightShoulder
        {
          OFFSET -8 19.6109 2.86452
          CHANNELS 3 Zrotation Xrotation Yrotation
          JOINT RightArm
          {
            OFFSET -12 1 0.681055
            CHANNELS 3 Zrotation Xrotation Yrotation
            JOINT RightForeArm
            {
              OFFSET -19 0 -1.52608
              CHANNELS 3 Zrotation Xrotation Yrotation
              JOINT RightHand
              {
                OFFSET -23 0 0
                CHANNELS 3 Zrotation Xrotation Yrotation
                End Site
                {
                  OFFSET -10 0 0
                }
              }
            }
          }
        }
      }
    }
  }
  JOINT LeftUpLeg
  {
    OFFSET 9 -7.17245 0
    CHANNELS 3 Zrotation Xrotation Yrotation
    JOINT LeftLeg
    {
      OFFSET 0 -44.1113 0
      CHANNELS 3 Zrotation Xrotation Yrotation
      JOINT LeftFoot
      {
        OFFSET 0 -36.1829 0
        CHANNELS 3 Zrotation Xrotation Yrotation
        JOINT LeftToeBase
        {
          OFFSET 0 -4.84184 13
          CHANNELS 3 Zrotation Xrotation Yrotation
          End Site
          {
            OFFSET 0 1 6
          }
        }
      }
    }
  }
  JOINT RightUpLeg
  {
    OFFSET -9 -7.17245 0
    CHANNELS 3 Zrotation Xrotation Yrotation
    JOINT RightLeg
    {
      OFFSET 0 -44.0551 0
      CHANNELS 3 Zrotation Xrotation Yrotation
      JOINT RightFoot
      {
        OFFSET 0 -36.1469 0
        CHANNELS 3 Zrotation Xrotation Yrotation
        JOINT RightToeBase
        {
          OFFSET 0 -4.92256 13
          CHANNELS 3 Zrotation Xrotation Yrotation
          End Site
          {
            OFFSET 0 1 6
          }
        }
      }
    }
  }
}
MOTION
Frames:	8
Frame Time:	0.0333333
-327.016 93.3505 301.686 -6.18233 -4.96993 -35.4782 0 0 0 -6.20643 9.96132 -2.63343 8.4457 1.55036 -4.84085 7.17999 17.3845 2.48397 -6.56164 -2.23111 7.10803 -25.1265 3.51146 -7.67472 -46.6699 16.6666 -20.288 -3.19767 -10.0547 -3.51744 -6.70269 0.42339 -7.22062 24.1223 5.6764 15.0428 53.0003 10.9449 -6.48348 2.00797 -1.80034 13.678 2.78756 0.120052 4.93108 9.84739 -10.8077 3.19249 4.9052e-008 63.4349 -9.95363 7.57954 -12.0437 0.800721 0.60674 -2.00594 -2.14218 6.30838 -3.48121 -2.77133 0.953651 17.8424 -1.08449 -11.0785 -3.8804 -0.376465 2.57991 -8.74913 -5.09005 
-326.073 93.2755 300.829 -6.51546 -4.50015 -35.3969 0 0 0 -6.00409 7.74371 -2.99794 8.92312 2.86606 -5.3396 7.54666 18.5558 2.46039 -6.70417 -2.21097 7.36341 -25.1324 3.4901 -7.60513 -47.8596 13.2568 -21.4399 -1.6416 -1.39236 -4.96874 -9.89176 0.498028 -5.7503 24.3814 5.73271 15.0753 53.1526 10.3393 -8.02976 2.30681 -2.71639 13.2508 2.7066 0.108846 4.60498 11.3178 -6.5384 3.35963 -1.12005e-006 63.3535 -13.5011 6.75353 -11.2866 0.668107 0.432496 -1.92131 -1.37861 6.59277 -4.3289 -2.57483 1.2259 17.2115 -1.1857 -10.8873 -2.79229 -0.266148 2.47245 -8.24212 -5.19244 
-324.983 93.1099 300.128 -6.88017 -4.41688 -35.6466 0 0 0 -5.60735 5.26603 -3.24263 9.20238 4.93177 -5.67708 5.72254 20.0264 3.09855 -3.65149 -2.09753 6.64874 -25.3056 3.53646 -7.69286 -48.183 12.0105 -23.2529 -0.162295 3.32027 -7.91667 -13.272 -0.0665237 0.571797 23.6807 4.56039 11.6457 53.9665 12.3136 -6.10145 3.94201 -6.03256 10.7973 0.798429 0.0399976 5.73561 12.3866 -1.5939 3.98091 2.27046e-008 61.6827 -17.3002 3.34306 -11.5641 0.338614 -0.191589 0.219418 0.7355 6.56428 -5.2691 -2.70314 1.36841 17.6572 -0.69608 -11.6227 -1.67872 -0.170865 2.65044 -9.02695 -5.27942 
-323.924 92.8791 299.461 -7.18949 -3.94247 -35.8828 0 0 0 -5.92026 2.36174 -3.62436 10.4945 7.11534 -6.48869 5.03906 20.9868 3.48297 -2.89785 -1.89729 6.6242 -25.6157 3.52415 -7.55028 -48.5845 13.0043 -24.8851 -1.55634 -1.26717 -5.03587 -9.13783 0.470957 -5.88828 23.2162 4.21553 10.7184 53.3307 11.337 -5.39706 3.76243 -5.55582 9.39428 3.92655 0.200519 5.84454 13.583 3.28487 5.27898 5.01089e-008 57.9196 -19.845 3.33002 -11.6097 0.338631 0.447803 -0.228759 -1.82573 6.70268 -6.59769 -2.80485 1.49152 18.2216 -0.199079 -11.7714 -1.00314 -0.103414 2.62678 -8.93626 -5.20165 
-322.465 92.5252 298.638 -7.63904 -3.49343 -35.9561 0 0 0 -5.60449 -0.346017 -4.24328 11.3758 9.37636 -7.2907 8.33338 21.4346 2.54101 -7.59845 -1.95736 8.23573 -25.8337 3.5429 -7.53644 -49.5796 9.66337 -26.0854 1.03446 11.4709 -6.36336 -14.0565 0.49188 -3.98818 23.9958 5.44759 14.3762 53.1202 8.13776 -8.69999 3.27237 -6.1889 11.1335 3.55951 0.172627 5.55127 14.3931 7.68209 6.11643 1.45847e-006 53.1303 -24.5552 1.84009 -12.2372 0.19727 0.159805 -0.109373 -0.640923 6.70601 -8.50087 -3.07076 1.38495 19.7376 0.45372 -9.43458 -1.3577 -0.112041 2.17521 -7.00322 -4.82647 
-320.79 92.1538 297.49 -7.91145 -3.47649 -35.9706 0 0 0 -2.66643 -1.94521 -4.15983 8.00962 11.0114 -6.34832 10.7475 21.2334 1.17202 -7.50086 -1.37135 7.97589 -24.9299 3.70721 -8.36485 -48.9622 13.117 -27.7461 -1.57687 -0.407256 -4.84635 -8.60144 0.494097 -6.56303 25.2142 4.13038 9.59576 52.9362 9.81464 -6.31631 3.48072 -5.35191 10.815 2.88912 0.139016 5.50841 14.3839 11.2655 7.55586 4.06963e-007 47.7879 -30.2283 6.72512 -9.69732 0.571127 0.743166 -8.29176 -1.15899 6.43316 -10.4157 -3.12644 1.18103 21.0382 0.973906 -8.66412 -0.0483116 -0.00365976 2.27078 -7.37663 -5.02269 
-318.81 91.7126 295.881 -7.80886 -3.29222 -35.9351 0 0 0 -4.46524 -1.09105 -4.62904 10.9594 9.63739 -7.42001 8.31884 22.6182 2.30756 -5.06085 -1.55282 7.56778 -26.4188 3.70385 -7.83654 -48.5093 13.0619 -27.6919 -1.47467 -1.2544 -5.78319 -8.03036 0.472701 -6.7266 24.1197 3.96484 9.50441 53.2835 8.73027 -6.07701 2.77307 -3.72877 11.4865 3.63228 0.177442 5.59164 13.8803 12.9233 8.11398 -4.80136e-007 43.2407 -33.4022 3.7591 -10.6494 0.350479 0.89476 -6.70536 -2.48514 6.00524 -12.7144 -3.06941 1.13083 21.562 1.18094 -8.51075 1.73804 0.129333 2.25582 -7.2657 -5.17995 
-316.447 91.2712 293.767 -7.94362 -2.99785 -34.5311 0 0 0 -2.18959 -1.17857 -5.14739 7.82332 10.0068 -7.17332 12.54 22.7678 0.0444062 -6.9565 -1.92486 7.70483 -23.2907 3.76443 -9.17836 -50.8094 11.9531 -28.86 -1.20432 0.66477 -4.91425 -7.87727 0.491052 -7.12299 26.5787 3.9941 8.66217 52.8754 6.50198 -5.91277 2.02334 -3.6099 13.8537 3.10696 0.159201 5.86513 13.7011 12.8092 6.90408 5.38328e-007 40.4869 -33.2088 1.54483 -15.1027 0.204802 1.59884 -9.13179 -6.15284 5.70191 -14.5649 -2.59106 1.31913 20.1864 -0.387137 -7.913 4.73529 0.327697 2.28421 -7.34557 -5.35646 
